<?xml version="1.0" encoding="UTF-8"?>
<svg id="Layer_1" data-name="Layer 1" xmlns="http://www.w3.org/2000/svg" viewBox="0 0 654.35 454.56">
  <defs>
    <style>
      .cls-1 {
        fill: #fff;
      }

      .cls-2 {
        fill: none;
        stroke: #fff;
      }

      .cls-2, .cls-3, .cls-4 {
        stroke-miterlimit: 10;
        stroke-width: 5.35px;
      }

      .cls-5 {
        fill: #4fa446;
      }

      .cls-3 {
        fill: #181e12;
        stroke: #4fa446;
      }

      .cls-6 {
        fill: #21b24b;
      }

      .cls-4 {
        fill: #263219;
        stroke: #608e3e;
      }
    </style>
  </defs>
  <g>
    <rect class="cls-4" x="9.48" y="5.6" width="635.4" height="443.37" rx="46.6" ry="46.6"/>
    <rect class="cls-3" x="55.37" y="204.69" width="543.62" height="129.2" rx="23.27" ry="23.27"/>
    <g>
      <path class="cls-5" d="m101.26,293.4c-6.91,0-12.44-2.28-16.6-6.83-4.16-4.55-6.24-10.48-6.24-17.77,0-7.84,2.12-14.09,6.36-18.76s10-7,17.3-7c6.73,0,12.15,2.27,16.26,6.8,4.11,4.53,6.17,10.46,6.17,17.77,0,7.95-2.11,14.24-6.32,18.86s-9.86,6.93-16.92,6.93Zm.41-45.2c-5.12,0-9.28,1.85-12.47,5.54s-4.79,8.54-4.79,14.55,1.56,10.84,4.67,14.5c3.11,3.66,7.18,5.49,12.18,5.49,5.35,0,9.56-1.74,12.64-5.23s4.62-8.37,4.62-14.65-1.5-11.41-4.49-14.92-7.11-5.27-12.37-5.27Z"/>
      <path class="cls-5" d="m150.53,245.96c-1.09-.61-2.32-.92-3.7-.92-3.9,0-5.85,2.46-5.85,7.37v5.37h8.16v4.76h-8.16v30.04h-5.54v-30.04h-5.94v-4.76h5.94v-5.64c0-3.65,1.06-6.53,3.16-8.65,2.11-2.12,4.74-3.18,7.88-3.18,1.7,0,3.05.2,4.05.61v5.03Z"/>
      <path class="cls-5" d="m172.32,245.96c-1.09-.61-2.32-.92-3.7-.92-3.9,0-5.85,2.46-5.85,7.37v5.37h8.16v4.76h-8.16v30.04h-5.54v-30.04h-5.95v-4.76h5.95v-5.64c0-3.65,1.06-6.53,3.16-8.65,2.11-2.12,4.74-3.18,7.88-3.18,1.7,0,3.05.2,4.05.61v5.03Z"/>
      <path class="cls-5" d="m179.76,248.95c-1,0-1.85-.34-2.55-1.02-.71-.68-1.06-1.54-1.06-2.58s.35-1.91,1.06-2.6c.7-.69,1.55-1.04,2.55-1.04s1.89.35,2.6,1.04c.72.69,1.07,1.56,1.07,2.6s-.36,1.85-1.07,2.55c-.71.7-1.58,1.05-2.6,1.05Zm2.72,43.64h-5.57v-34.8h5.57v34.8Z"/>
      <path class="cls-5" d="m217.48,290.99c-2.67,1.61-5.85,2.41-9.52,2.41-4.96,0-8.97-1.62-12.01-4.84-3.05-3.23-4.57-7.42-4.57-12.56,0-5.73,1.64-10.34,4.93-13.81,3.29-3.48,7.67-5.22,13.15-5.22,3.06,0,5.76.57,8.09,1.7v5.71c-2.58-1.81-5.35-2.72-8.29-2.72-3.56,0-6.47,1.28-8.75,3.82-2.27,2.55-3.41,5.9-3.41,10.04s1.07,7.3,3.21,9.65c2.14,2.36,5.01,3.53,8.62,3.53,3.04,0,5.89-1.01,8.56-3.02v5.3Z"/>
      <path class="cls-5" d="m228.76,248.95c-1,0-1.85-.34-2.55-1.02-.71-.68-1.06-1.54-1.06-2.58s.35-1.91,1.06-2.6c.7-.69,1.55-1.04,2.55-1.04s1.89.35,2.6,1.04c.72.69,1.07,1.56,1.07,2.6s-.36,1.85-1.07,2.55c-.71.7-1.58,1.05-2.6,1.05Zm2.72,43.64h-5.57v-34.8h5.57v34.8Z"/>
      <path class="cls-5" d="m267.68,292.58h-5.57v-5.44h-.14c-2.43,4.17-6,6.25-10.71,6.25-3.47,0-6.18-.92-8.14-2.75s-2.94-4.27-2.94-7.31c0-6.5,3.83-10.29,11.49-11.35l10.44-1.46c0-5.91-2.39-8.87-7.17-8.87-4.19,0-7.97,1.43-11.35,4.28v-5.71c3.42-2.17,7.36-3.26,11.83-3.26,8.18,0,12.27,4.33,12.27,12.98v22.63Zm-5.57-17.6l-8.4,1.16c-2.58.36-4.53,1-5.85,1.92-1.31.92-1.97,2.54-1.97,4.88,0,1.7.61,3.09,1.82,4.16,1.21,1.08,2.82,1.62,4.84,1.62,2.77,0,5.05-.97,6.85-2.91,1.8-1.93,2.7-4.39,2.7-7.36v-3.47Z"/>
      <path class="cls-5" d="m283.75,292.58h-5.57v-51.52h5.57v51.52Z"/>
      <path class="cls-5" d="m351.28,289.25c-4.89,2.76-10.33,4.15-16.31,4.15-6.95,0-12.58-2.24-16.87-6.73s-6.44-10.42-6.44-17.81,2.38-13.73,7.15-18.57c4.77-4.84,10.81-7.26,18.13-7.26,5.3,0,9.75.86,13.36,2.58v6.32c-3.94-2.49-8.61-3.74-14-3.74s-9.94,1.88-13.43,5.64-5.23,8.63-5.23,14.61,1.62,11.01,4.86,14.53c3.24,3.52,7.64,5.28,13.19,5.28,3.81,0,7.11-.76,9.89-2.28v-13.66h-10.67v-5.17h16.38v22.09Z"/>
      <path class="cls-5" d="m386.76,292.58h-5.57v-5.44h-.14c-2.43,4.17-6,6.25-10.71,6.25-3.47,0-6.18-.92-8.14-2.75s-2.94-4.27-2.94-7.31c0-6.5,3.83-10.29,11.49-11.35l10.44-1.46c0-5.91-2.39-8.87-7.17-8.87-4.19,0-7.97,1.43-11.35,4.28v-5.71c3.42-2.17,7.36-3.26,11.83-3.26,8.18,0,12.27,4.33,12.27,12.98v22.63Zm-5.57-17.6l-8.4,1.16c-2.58.36-4.53,1-5.85,1.92-1.31.92-1.97,2.54-1.97,4.88,0,1.7.61,3.09,1.82,4.16,1.21,1.08,2.82,1.62,4.84,1.62,2.77,0,5.05-.97,6.85-2.91,1.8-1.93,2.7-4.39,2.7-7.36v-3.47Z"/>
      <path class="cls-5" d="m446.67,292.58h-5.57v-19.98c0-3.85-.6-6.64-1.78-8.36-1.19-1.72-3.19-2.58-6-2.58-2.38,0-4.4,1.09-6.07,3.26-1.66,2.17-2.49,4.78-2.49,7.82v19.85h-5.57v-20.66c0-6.84-2.64-10.26-7.92-10.26-2.45,0-4.46,1.02-6.05,3.07-1.58,2.05-2.38,4.72-2.38,8v19.85h-5.57v-34.8h5.57v5.51h.14c2.47-4.21,6.07-6.32,10.81-6.32,2.38,0,4.45.66,6.22,1.99,1.77,1.33,2.97,3.07,3.63,5.22,2.58-4.8,6.44-7.2,11.55-7.2,7.66,0,11.49,4.72,11.49,14.17v21.44Z"/>
      <path class="cls-5" d="m485.17,276.58h-24.57c.09,3.87,1.13,6.86,3.13,8.97s4.74,3.16,8.22,3.16c3.92,0,7.52-1.29,10.81-3.87v5.23c-3.06,2.22-7.11,3.33-12.13,3.33s-8.78-1.58-11.59-4.74c-2.81-3.16-4.21-7.6-4.21-13.34,0-5.41,1.54-9.83,4.61-13.24,3.07-3.41,6.88-5.11,11.43-5.11s8.08,1.47,10.57,4.42c2.49,2.95,3.73,7.03,3.73,12.27v2.92Zm-5.71-4.72c-.02-3.22-.79-5.72-2.33-7.51-1.53-1.79-3.65-2.68-6.37-2.68s-4.86.94-6.69,2.82-2.97,4.34-3.4,7.37h18.79Z"/>
    </g>
    <g>
      <path class="cls-1" d="m165.22,409.63v-6.73c.77.68,1.69,1.29,2.77,1.84,1.08.54,2.21,1,3.4,1.38,1.19.38,2.39.66,3.59.87s2.31.31,3.33.31c3.51,0,6.13-.65,7.87-1.95,1.73-1.3,2.6-3.18,2.6-5.63,0-1.31-.29-2.46-.87-3.43-.58-.98-1.38-1.86-2.39-2.67-1.02-.8-2.23-1.57-3.62-2.31-1.4-.73-2.9-1.51-4.5-2.33-1.7-.86-3.29-1.73-4.76-2.62s-2.75-1.86-3.84-2.92-1.94-2.27-2.57-3.62c-.62-1.35-.93-2.93-.93-4.74,0-2.22.49-4.15,1.46-5.8.98-1.64,2.25-3,3.84-4.06s3.39-1.86,5.42-2.38c2.03-.52,4.1-.78,6.2-.78,4.8,0,8.3.58,10.5,1.73v6.42c-2.88-1.99-6.57-2.99-11.08-2.99-1.25,0-2.49.13-3.74.39-1.25.26-2.36.68-3.33,1.27s-1.77,1.35-2.38,2.28-.92,2.06-.92,3.4c0,1.25.23,2.32.7,3.23.46.91,1.15,1.73,2.05,2.48s2.01,1.47,3.31,2.17c1.3.7,2.8,1.47,4.5,2.31,1.74.86,3.4,1.77,4.96,2.72s2.93,2.01,4.11,3.16,2.11,2.44,2.8,3.84c.69,1.4,1.04,3.01,1.04,4.83,0,2.4-.47,4.43-1.41,6.1-.94,1.66-2.21,3.02-3.81,4.06-1.59,1.04-3.44,1.8-5.52,2.26-2.08.46-4.28.7-6.59.7-.77,0-1.72-.06-2.85-.19-1.13-.12-2.29-.3-3.47-.54-1.18-.24-2.3-.53-3.35-.88-1.06-.35-1.9-.74-2.53-1.17Z"/>
      <path class="cls-1" d="m206.58,367.96c-1,0-1.85-.34-2.55-1.02s-1.05-1.54-1.05-2.58.35-1.91,1.05-2.6c.7-.69,1.55-1.04,2.55-1.04s1.89.35,2.6,1.04c.72.69,1.07,1.56,1.07,2.6s-.36,1.85-1.07,2.55c-.71.7-1.58,1.05-2.6,1.05Zm2.72,43.64h-5.57v-34.8h5.57v34.8Z"/>
      <path class="cls-1" d="m249.47,411.6h-5.57v-19.85c0-7.39-2.7-11.08-8.08-11.08-2.79,0-5.09,1.05-6.92,3.14-1.82,2.1-2.73,4.74-2.73,7.94v19.85h-5.57v-34.8h5.57v5.78h.14c2.62-4.39,6.43-6.59,11.42-6.59,3.81,0,6.71,1.23,8.73,3.69,2.02,2.46,3.02,6.01,3.02,10.66v21.27Z"/>
      <path class="cls-1" d="m283.69,410c-2.67,1.61-5.85,2.41-9.52,2.41-4.96,0-8.97-1.62-12.01-4.84-3.05-3.23-4.57-7.42-4.57-12.56,0-5.73,1.64-10.34,4.93-13.81,3.29-3.48,7.67-5.22,13.15-5.22,3.06,0,5.76.57,8.09,1.7v5.71c-2.58-1.81-5.35-2.72-8.29-2.72-3.56,0-6.47,1.28-8.75,3.82-2.27,2.55-3.41,5.9-3.41,10.04s1.07,7.3,3.21,9.65c2.14,2.36,5.01,3.53,8.62,3.53,3.04,0,5.89-1.01,8.56-3.02v5.3Z"/>
      <path class="cls-1" d="m320.08,395.59h-24.57c.09,3.87,1.13,6.86,3.13,8.97s4.74,3.16,8.22,3.16c3.92,0,7.52-1.29,10.81-3.87v5.23c-3.06,2.22-7.11,3.33-12.13,3.33s-8.78-1.58-11.59-4.74c-2.81-3.16-4.21-7.6-4.21-13.34,0-5.41,1.54-9.83,4.61-13.24,3.07-3.41,6.88-5.11,11.43-5.11s8.08,1.47,10.57,4.42c2.49,2.95,3.73,7.03,3.73,12.27v2.92Zm-5.71-4.72c-.02-3.22-.79-5.72-2.33-7.51-1.53-1.79-3.65-2.68-6.37-2.68s-4.86.94-6.69,2.82-2.97,4.34-3.4,7.37h18.79Z"/>
      <path class="cls-1" d="m368.17,375.64c0-1.5-.23-2.8-.7-3.91s-1.1-2.03-1.9-2.77c-.81-.74-1.75-1.29-2.84-1.65s-2.26-.54-3.53-.54c-1.09,0-2.15.15-3.19.44s-2.05.7-3.04,1.22c-.98.52-1.93,1.15-2.85,1.87-.91.72-1.77,1.53-2.57,2.41v-5.98c1.57-1.52,3.31-2.68,5.25-3.48,1.93-.81,4.3-1.21,7.08-1.21,1.99,0,3.84.29,5.54.87,1.69.58,3.17,1.42,4.41,2.53,1.25,1.11,2.23,2.48,2.94,4.11.71,1.63,1.07,3.5,1.07,5.61,0,1.93-.22,3.67-.66,5.23-.44,1.56-1.11,3.04-2.01,4.42s-2.02,2.71-3.38,3.98-2.95,2.56-4.79,3.87c-2.29,1.63-4.17,3.02-5.66,4.18s-2.66,2.24-3.53,3.25c-.87,1.01-1.48,2.02-1.84,3.02-.35,1.01-.53,2.17-.53,3.48h24.26v5h-30.08v-2.41c0-2.08.23-3.92.68-5.51.45-1.59,1.2-3.09,2.25-4.52,1.04-1.43,2.41-2.85,4.09-4.28s3.75-3.04,6.2-4.83c1.77-1.27,3.25-2.48,4.43-3.64,1.19-1.16,2.15-2.31,2.87-3.47.73-1.16,1.24-2.33,1.55-3.52.31-1.19.46-2.45.46-3.79Z"/>
      <path class="cls-1" d="m397.74,412.41c-4.83,0-8.59-2.07-11.3-6.22-2.71-4.15-4.06-10.14-4.06-17.98,0-8.61,1.41-15.12,4.23-19.54,2.82-4.42,6.9-6.63,12.22-6.63,10.2,0,15.29,8.33,15.29,24.98,0,8.25-1.44,14.54-4.32,18.88-2.88,4.34-6.9,6.51-12.06,6.51Zm.78-45.64c-6.95,0-10.43,7.06-10.43,21.17,0,13.19,3.41,19.78,10.23,19.78s10.09-6.71,10.09-20.12-3.29-20.83-9.89-20.83Z"/>
      <path class="cls-1" d="m441.58,411.6h-5.57v-42.11c-.43.43-1.06.92-1.89,1.48-.83.56-1.76,1.11-2.79,1.65s-2.12,1.05-3.26,1.53-2.26.85-3.35,1.12v-5.64c1.22-.34,2.52-.8,3.89-1.38,1.37-.58,2.72-1.22,4.05-1.93,1.32-.72,2.58-1.46,3.75-2.24,1.18-.78,2.2-1.55,3.06-2.3h2.11v49.82Z"/>
      <path class="cls-1" d="m468.43,386.04v-.14c-5.85-2.72-8.77-6.66-8.77-11.83,0-3.51,1.34-6.39,4.01-8.65,2.67-2.26,6.12-3.38,10.33-3.38,3.81,0,6.93,1.05,9.38,3.16s3.67,4.82,3.67,8.12c0,5.39-3.01,9.58-9.04,12.57v.14c7.12,2.54,10.67,6.93,10.67,13.19,0,4.03-1.45,7.24-4.35,9.62s-6.93,3.57-12.1,3.57c-4.17,0-7.6-1.18-10.29-3.53-2.7-2.36-4.05-5.41-4.05-9.18,0-6.25,3.51-10.81,10.54-13.66Zm4.49,2.65c-6.21,2.47-9.31,6.05-9.31,10.74,0,2.42.9,4.41,2.7,5.97,1.8,1.55,4.17,2.33,7.12,2.33s5.11-.76,6.89-2.3c1.78-1.53,2.67-3.46,2.67-5.79,0-4.89-3.35-8.54-10.06-10.94Zm8.43-14.68c0-2.24-.7-4.01-2.11-5.3s-3.32-1.94-5.74-1.94c-2.27,0-4.19.67-5.76,2.02-1.57,1.35-2.36,3.07-2.36,5.15,0,4.24,2.64,7.43,7.92,9.58,5.37-2.22,8.06-5.39,8.06-9.52Z"/>
    </g>
    <g>
      <path class="cls-1" d="m502.65,107c1.19.39,2,.62,2.79.92,2.69,1.01,4.68,2.79,5.97,5.38,1.22,2.43,1.87,5,2.18,7.69.63,5.42.38,10.77-1.37,15.96-1.03,3.07-2.46,5.99-4.98,8.14-1.22,1.05-2.62,1.97-4.07,2.67-2.32,1.12-4.79,1.67-7.41,1.67-8.61-.03-17.23.05-25.84.07-.45,0-.9-.1-1.44-.16v-78.85c.5-.07.89-.18,1.28-.18,7.79,0,15.59-.09,23.38.05,2.6.05,5.25.45,7.78,1.07,5.05,1.24,8.07,4.83,9.71,9.55,1.85,5.34,1.72,10.85.57,16.3-.8,3.82-3.02,6.82-6.44,8.83-.53.31-1.14.49-2.11.9Zm-19.7,30.79c2.87,0,5.5.05,8.12-.01,4.43-.09,7.51-3.06,7.68-7.48.11-2.8.14-5.61.03-8.41-.1-2.33-.8-4.57-2.73-6.05-1.86-1.42-4.15-1.8-6.45-1.86-.93-.03-1.87.09-2.8.11-1.26.02-2.53,0-3.84,0v23.7Zm.18-55.62c-.08.17-.13.22-.13.27-.06,6.26-.11,12.53-.17,18.79,0,.92.49,1.24,1.33,1.19,2.33-.13,4.68-.16,7-.43,4.31-.5,5.79-3.28,5.97-6.9.11-2.22.14-4.45.06-6.66-.1-2.59-1.04-4.94-4.09-5.89-.66-.21-1.36-.35-2.04-.36-2.62-.04-5.24-.02-7.93-.02Z"/>
      <path class="cls-1" d="m419.03,108.66c1.11.34,2.17.6,3.17.97,3.93,1.46,5.95,4.46,6.86,8.43.81,3.54.5,7.11.59,10.68.07,2.75.1,5.5.27,8.24.12,1.98.39,3.95.65,5.92.23,1.76.74,3.42,1.75,4.92.24.35.35.79.62,1.43-.8.11-1.35.26-1.9.26-4.22.02-8.44.01-12.66,0-1.56,0-1.59,0-1.94-1.55-.63-2.74-.99-5.49-1.02-8.32-.06-5.5-.28-11-.58-16.5-.07-1.29-.62-2.61-1.16-3.82-.93-2.07-2.9-2.78-4.91-3.28-3.28-.83-6.63-.38-10.18-.53-.05.75-.12,1.43-.12,2.1,0,9.91,0,19.81,0,29.72,0,.63,0,1.26,0,2.05-.75.05-1.31.11-1.88.11-3.52,0-7.03,0-10.55,0-1.9,0-1.9-.01-1.9-1.97,0-23.68,0-47.37,0-71.05,0-1.41-.01-2.81,0-4.22,0-.57.07-1.14.11-1.82.57-.06,1.02-.14,1.46-.14,7.86,0,15.71-.06,23.57,0,4.04.03,8.05.61,11.78,2.21,3.89,1.67,6.51,4.63,7.98,8.63,1.09,2.97,1.29,6.03,1.25,9.14-.04,3.29-.41,6.53-1.55,9.65-1.64,4.45-4.58,7.4-9.33,8.36-.08.02-.13.14-.33.36Zm-20.49-4.87c3.14,0,6.06.05,8.97-.03.9-.03,1.83-.31,2.68-.66,2.21-.91,3.53-2.67,4.2-4.89,1.05-3.48,1.09-7.04.41-10.58-.49-2.51-1.9-4.49-4.48-5.11-3.73-.91-7.55-.58-11.35-.45-.1,0-.2.11-.42.24v21.47Z"/>
      <path class="cls-1" d="m316.94,94.39c-.36.05-.7.15-1.03.15-3.69,0-7.38,0-11.08-.04-1.51-.02-1.52-.12-1.63-1.62-.16-2.15-.19-4.33-.64-6.42-.85-3.91-3.21-5.85-7.31-6-1.43-.05-2.96.14-4.3.62-3.17,1.13-4.05,3.71-4.06,6.84-.02,4.08,2.02,6.93,5.27,9.16,5.35,3.65,10.72,7.3,15.95,11.11,2.16,1.57,4.15,3.45,5.95,5.43,2.92,3.2,4.43,7.08,4.87,11.41.66,6.49-.22,12.6-4.08,18.04-2.17,3.06-5.15,5.09-8.58,6.43-4.3,1.69-8.8,2.3-13.4,1.91-3.47-.3-6.88-.88-10.1-2.45-5.23-2.55-8.24-6.75-9.77-12.19-1.09-3.86-1.45-7.8-1.12-11.8.09-1.08.01-2.17.01-3.37h14.23c.05.85.11,1.59.14,2.33.11,2.63-.02,5.29.37,7.88.57,3.78,2.36,6.73,6.55,7.47,2.26.4,4.73.42,6.98-.77,2.16-1.13,3.42-2.95,3.77-5.2.3-1.93.27-3.98,0-5.93-.33-2.45-1.7-4.52-3.62-6.05-2.79-2.22-5.68-4.31-8.59-6.36-4.58-3.22-9.34-6.22-13.29-10.26-2.62-2.68-4.51-5.76-5.55-9.41-1-3.52-1.05-7.01-.51-10.58.43-2.88,1.32-5.55,2.88-8.02,2.24-3.55,5.56-5.57,9.45-6.82,4.24-1.36,8.57-1.49,12.97-1.22,3.17.19,6.15.86,9.03,2.21,4.33,2.04,7.17,5.38,8.68,9.83,1.42,4.19,1.93,8.53,1.73,12.95-.01.22-.12.43-.2.73Z"/>
      <path class="cls-1" d="m329.14,70.29c.8,0,1.43,0,2.06,0,8.91,0,17.82,0,26.73,0,2.95,0,5.83.45,8.51,1.71,4.02,1.89,6.6,5.12,8.15,9.23,1.7,4.51,2.1,9.2,1.85,13.97-.15,2.92-.71,5.76-1.72,8.53-1.8,4.95-5.05,8.44-9.86,10.59-3.6,1.6-7.39,2-11.24,2.08-2.64.06-5.28,0-7.91.02-.63,0-1.26.06-2.14.11,0,.76,0,1.38,0,2,0,8.62,0,17.23,0,25.85,0,1.62-.11,3.25-.18,4.97-.57.07-1.02.17-1.46.17-3.69,0-7.39,0-11.08-.02-1.79,0-1.79-.02-1.83-1.87-.03-1.64-.05-3.28-.05-4.92,0-23.27,0-46.54,0-69.82,0-.8.1-1.6.17-2.59Zm14.52,11.95v22.35c3.23,0,6.31.05,9.4-.01,4.33-.09,7.09-2.93,8.05-6.89.54-2.22.44-4.4.44-6.6,0-1.26-.15-2.56-.47-3.78-.5-1.95-1.61-3.52-3.61-4.19-1.08-.37-2.22-.71-3.36-.78-3.32-.19-6.65-.23-9.98-.31-.15,0-.31.14-.47.22Z"/>
      <path class="cls-1" d="m523.83,70.35h40.17c.15,3.86.41,7.67-.07,11.63-.7,0-1.27,0-1.85,0-7.27,0-14.54,0-21.8,0-.41,0-.82,0-1.23,0-.72,0-1.08.37-1.08,1.08,0,.29,0,.59,0,.88,0,5.28,0,10.55,0,15.83,0,2.09,0,2.1,2.17,2.1,6.04,0,12.07,0,18.11,0,1.17,0,2.33,0,3.72,0,.11,1.96.03,3.82.05,5.67.01,1.87,0,3.74,0,5.87-2.02.15-3.99.05-5.96.07-1.99.02-3.99,0-5.98,0h-5.8c-1.99,0-3.97,0-6.07,0-.1.57-.25,1.01-.25,1.45,0,7.27,0,14.54.01,21.8,0,.23.05.46.11.9.72.07,1.44.19,2.17.19,7.21.01,14.42,0,21.63,0,.64,0,1.28,0,2.13,0,.14,3.91.41,7.72-.06,11.58h-40.11c-.52-2.09-.53-76.92,0-79.07Z"/>
      <path class="cls-1" d="m456.51,70.37v78.83c-1.11.36-12.11.47-13.97.15-.4-1.63-.34-77.63.07-78.98h13.9Z"/>
    </g>
    <g>
      <path class="cls-1" d="m204.49,127.72v-8.47c-2.83-.28-5.58.04-8.44-.22-.04-1.4-.09-2.68-.11-3.97-.02-1.3-.04-2.61.02-3.91.04-1.01.21-1.19,1.15-1.2,2.26-.03,4.52,0,6.78,0,.77,0,1.04.36,1.03,1.12-.03,1.85,0,3.71,0,5.56,0,.6,0,1.19,0,1.92h6.13v-7.85c1.83-.5,3.58-.19,5.3-.23,1.69-.04,3.38.04,5.23.07v8.1c-2.65.22-5.29.03-8.09.16-.15,2.94-.01,5.8-.06,8.8,2.76.22,5.41-.07,8.05.17v8.29c-2.8.23-5.47.38-8.28.05v-8.21c-2.89-.25-5.68.03-8.69-.18Z"/>
      <path class="cls-1" d="m152.5,48.46c3.25-.07,6.33-.06,9.47,0,.1.32.22.55.22.78.02,2.11.02,4.21.01,6.32,0,.71-.23,1.07-1.08,1.05-2.49-.06-4.99-.02-7.65-.02-.05.48-.12.91-.12,1.33-.01,2.41,0,4.82,0,7.23,0,.49-.06.97-.1,1.63h-8.09c-.44,2.11.07,4.12-.31,6.13-3.19.04-6.22.06-9.38,0v-6.17c2.55-.24,5.04.05,7.64-.17v-10.31h9.39v-7.79Z"/>
      <path class="cls-1" d="m186.92,56.11v-7.06h9.18c.05.8.12,1.58.13,2.37.02,1.15.02,2.31-.03,3.46-.04,1.02-.27,1.25-1.26,1.26-1.6.01-3.21-.03-4.82-.04-.74,0-1.49,0-2.34,0v9.87c-3.17.42-6.24.11-9.35.22-.09-.42-.19-.65-.19-.88,0-2.61-.01-5.22,0-7.83,0-1.18.11-1.27,1.31-1.28,1.91-.02,3.82,0,5.73,0,.49,0,.97-.04,1.64-.07Z"/>
      <path class="cls-1" d="m135.99,92.24c.33,3.24.14,6.43.06,9.8,2.14,0,4.23.01,6.32,0,2.09-.02,2.09-.03,2.09,2.02,0,1.6,0,3.19,0,4.92h-9.46v-7.03c-2.73-.17-5.56.19-8.37-.25v-9.37c1.04-.39,7.58-.46,9.36-.1Z"/>
      <path class="cls-1" d="m125.92,83.72c-.08-.66-.18-1.1-.18-1.54-.01-2.35-.01-4.7.01-7.06,0-.97.32-1.25,1.26-1.25,2.55,0,5.11.01,7.66.02.4,0,.8.01,1.2.03.6.03.9.34.9.96,0,2.61-.02,5.21,0,7.82,0,.77-.35,1.11-1.08,1.11-1.3,0-2.61,0-3.91,0-1.89-.02-3.79-.06-5.87-.09Z"/>
      <path class="cls-1" d="m143,118.22v-8.2c.39-.07.72-.19,1.05-.19,2.75-.02,5.51-.03,8.26-.01,1.21,0,1.27.08,1.27,1.27,0,2.1,0,4.21.02,6.31,0,.67-.22,1.09-.91,1.09-3.05,0-6.1-.02-9.15-.05-.14,0-.27-.1-.54-.22Z"/>
      <path class="cls-1" d="m195.58,145.59c1.86-.43,7.53-.49,9.07-.12.05.39.14.83.14,1.26.02,2.3,0,4.6.04,6.9.01.79-.37,1.09-1.09,1.09-2.4,0-4.8-.02-7.2-.03-.62,0-.9-.33-.91-.93-.02-1.75-.04-3.5-.05-5.25,0-.99,0-1.98,0-2.92Z"/>
      <path class="cls-1" d="m127.83,154.36c-.11-.64-.26-1.17-.27-1.7-.03-1.85-.02-3.71,0-5.56.02-1.43.09-1.49,1.58-1.49,2,0,4.01-.02,6.01,0,1.18.01,1.3.13,1.31,1.29.03,2.05.02,4.11.02,6.17,0,.64-.06,1.27-.9,1.28-2.55.02-5.1,0-7.76,0Z"/>
      <path class="cls-1" d="m187.42,154.16c-.5.09-.88.22-1.27.22-2,.01-4.01.01-6.01-.01-1.15-.02-1.31-.15-1.33-1.31-.04-2.15-.04-4.31,0-6.46.02-.97.21-1.14,1.17-1.16,2.1-.04,4.21-.02,6.31-.04.64,0,1.12.19,1.13.9.02,2.6,0,5.19,0,7.86Z"/>
      <path class="cls-1" d="m204.68,83.47h-8.23c-.2-2.86-.05-5.64-.08-8.39,1.04-.43,6.84-.48,8.33-.09.29,2.78.25,5.59-.02,8.48Z"/>
      <path class="cls-1" d="m160.84,118.03c-.03-2.59-.2-4.97.07-7.4.37-.08.65-.18.93-.18,2.51-.01,5.01-.03,7.52,0,1.28.01,1.38.13,1.39,1.37.02,2.04,0,4.08,0,6.22h-9.91Z"/>
      <path class="cls-1" d="m170.64,57.72v7.29c-3.32.17-6.54.11-9.92.07v-7.32c3.25-.25,6.51-.16,9.92-.03Z"/>
      <path class="cls-1" d="m204.39,57.15v8.43c-2.74.22-5.45.09-8.33.08-.12-2.87-.32-5.63.03-8.51h8.3Z"/>
      <path class="cls-1" d="m152.36,145.64v8.4c-.99.34-6.92.36-8.27.01-.31-2.67-.08-5.4-.11-8.33,2.83-.2,5.51-.08,8.38-.08Z"/>
      <path class="cls-1" d="m152.59,102.15h9.23v6.87h-9.22c-.3-2.34-.26-4.56-.02-6.87Z"/>
      <path class="cls-1" d="m178.31,48.5v6.66c-3.18.2-6.31.06-9.53.09v-6.75h9.53Z"/>
      <path class="cls-1" d="m187.04,110.72v7.54c-1.03.39-5.58.5-7.73.2-.38-1.02-.42-6.5-.07-7.79,1.33-.3,6.56-.28,7.8.05Z"/>
      <path class="cls-1" d="m126.46,128.67c2.21-.02,4.16-.05,6.1-.06.65,0,1.3.02,1.95.03.6,0,.94.28.94.91,0,1.76,0,3.51,0,5.27,0,.72-.4.99-1.04.99-2.35,0-4.71-.02-7.06-.04-.51,0-.88-.25-.89-.81-.01-1.99,0-3.99,0-6.28Z"/>
      <path class="cls-1" d="m160.7,164.97c.51-.05.94-.13,1.38-.14,2.31-.02,4.62-.03,6.93-.03,1.73,0,1.85.13,1.86,1.9,0,1.24-.06,2.48-.09,3.93-3.42.07-6.69.05-10.07.02v-5.69Z"/>
      <path class="cls-1" d="m178.88,108.94c-2.92.11-5.79.25-8.75.05v-6.58c2.94-.18,5.81-.11,8.66-.03.35,1.15.41,4.64.09,6.56Z"/>
      <path class="cls-1" d="m161.17,153.27c-.11-2.24-.11-4.31-.02-6.52h8.61c.35.95.44,4.26.17,6.42-.21.08-.44.24-.66.24-2.64-.03-5.28-.08-8.1-.14Z"/>
      <path class="cls-1" d="m196.19,108.97h-8.94c-.09-2.22-.06-4.33-.06-6.55h8.96c.18,2.15-.04,4.22.04,6.55Z"/>
      <path class="cls-1" d="m204.18,144.21v-6.21c3.16-.11,6.19-.08,9.19-.02.35,1.33.31,5.14-.06,6.23h-9.13Z"/>
      <path class="cls-1" d="m187.17,73.16c-.28-2.07-.15-4-.09-6.14,3.01-.3,5.98-.05,9.11-.12.17,2.08.09,4.05.07,6.23-3.04.1-6,.08-9.09.03Z"/>
      <path class="cls-1" d="m187.22,93.59v6.32c-1.15.35-6.29.43-8.26.14-.42-2.04-.26-4.11-.09-6.36,2.74-.3,5.45-.12,8.35-.1Z"/>
      <path class="cls-1" d="m152.28,93.61v6.71c-2.65.24-5.17.18-7.8.05v-6.8c2.55-.08,5.07-.1,7.8.04Z"/>
      <path class="cls-1" d="m204.46,67.21c.44-.08.68-.17.91-.17,2.2-.01,4.4-.04,6.6-.01,1.2.01,1.38.19,1.42,1.4.05,1.49.01,2.97.01,4.49-.49.1-.77.2-1.05.2-2.15.02-4.3.04-6.45.03-1.33,0-1.43-.13-1.44-1.47-.01-1.45,0-2.89,0-4.48Z"/>
      <path class="cls-1" d="m118.44,84.74h8.27c.02,1.18.05,2.31.06,3.44,0,.55,0,1.1,0,1.65,0,.94-.18,1.21-1.1,1.22-2.11.03-4.21,0-6.32-.04-.28,0-.56-.16-.91-.27v-6.01Z"/>
      <path class="cls-1" d="m143.76,138.28v5.55c-3.02.31-5.99,0-9.12.1-.21-1.73-.25-3.37-.13-5,.05-.73.78-.66,1.32-.66,1.96-.01,3.91,0,5.87,0,.64,0,1.27,0,2.07,0Z"/>
      <path class="cls-1" d="m221.13,82.68h-7.01c-.25-2.42-.09-4.78-.11-7.35,2.24,0,4.28,0,6.32,0,.56,0,.84.4.85.87.02,2.09-.02,4.18-.04,6.48Z"/>
      <path class="cls-1" d="m204.88,90.88v-6.03c1.28-.37,2.62,0,3.94-.07,1.35-.08,2.7-.02,4.16-.02v6.08c-2.65.36-5.27.2-8.1.03Z"/>
      <path class="cls-1" d="m153.15,170.45c-2.76.37-5.38.25-8.08.14-.41-2.04-.2-3.95-.11-5.87.29-.11.47-.23.65-.23,2.15,0,4.31.01,6.46,0,.76,0,1.09.31,1.08,1.08-.02,1.55,0,3.1,0,4.89Z"/>
      <path class="cls-1" d="m169.42,93.55v6.57h-7.4c-.06-.46-.15-.84-.15-1.22-.02-1.46,0-2.91,0-4.37,0-.59.22-.98.86-.98,2.15,0,4.3,0,6.69,0Z"/>
      <path class="cls-1" d="m195.94,155.84v5.62h-8.38c-.42-1.86-.21-3.68-.05-5.62h8.44Z"/>
      <path class="cls-1" d="m160.93,155.71v5.73c-2.71.16-5.42.13-8.3,0,0-1.72-.02-3.31,0-4.9.01-.75.61-.84,1.18-.85,1.6,0,3.21,0,4.81,0,.7,0,1.39,0,2.3,0Z"/>
      <path class="cls-1" d="m127.7,57.98h6.61c.07.38.17.7.17,1.03.02,1.55.02,3.1,0,4.65-.01,1.13-.09,1.24-1.16,1.25-1.8.03-3.59,0-5.53,0-.3-2.36-.38-4.61-.09-6.95Z"/>
      <path class="cls-1" d="m186.34,164.33v6.48c-1.12.36-4.84.43-6.65.13v-6.61h6.65Z"/>
      <path class="cls-1" d="m144.83,76.59h7.36c.4,1.85.21,3.65.07,5.57-2.53.35-4.95.19-7.43.05v-5.62Z"/>
      <path class="cls-1" d="m212.53,108.51c-1.72.04-3.31.11-4.9.1-2.45-.02-2.46-.04-2.57-2.49-.04-1.04,0-2.08,0-3.25,2.58-.09,4.99-.32,7.47.01v5.63Z"/>
      <path class="cls-1" d="m203.77,93.82v6.08c-2.28.24-4.51.07-6.83.12v-6.2h6.83Z"/>
      <path class="cls-1" d="m187.88,126.09v-5.2c.48-.05.91-.13,1.34-.13,1.65-.01,3.31.01,4.96,0,.77-.01,1.08.3,1.04,1.08-.04,1.1,0,2.2-.01,3.3,0,.49-.17.94-.74.94-2.14.02-4.27,0-6.59,0Z"/>
      <path class="cls-1" d="m220.62,152.97c-2.13.13-4.05.05-6.06.05v-6.18c1.84-.1,3.63-.12,5.41.05.24.02.61.45.62.7.05,1.74.03,3.48.03,5.38Z"/>
      <path class="cls-1" d="m143.5,90.78c-2.32,0-4.37.03-6.42-.03-.26,0-.7-.47-.72-.74-.09-1.3-.11-2.61-.04-3.91.01-.25.5-.68.78-.68,1.91-.06,3.82-.05,5.72.01.23,0,.64.41.65.64.06,1.49.03,2.99.03,4.71Z"/>
      <path class="cls-1" d="m128.08,111.37c1.87,0,3.56-.01,5.26,0,.54,0,.8.36.8.9,0,1.51-.02,3.01-.02,4.52,0,.55-.3.87-.81.88-1.65.03-3.3.01-4.96.01-.45-1.06-.21-2.07-.25-3.05-.04-1,0-2,0-3.27Z"/>
      <path class="cls-1" d="m197.36,129.19c1.83,0,3.33,0,4.82,0,.64,0,1.08.21,1.08.93,0,1.69,0,3.38,0,5.27-2,.14-3.87.06-5.94.06-.1-2.13-.13-4.13.04-6.26Z"/>
      <path class="cls-1" d="m177.82,161.24c-2.37.13-4.65.09-7,.05-.52-1.66-.19-3.24-.34-4.94,2.55-.23,4.91-.38,7.33-.06v4.95Z"/>
      <path class="cls-1" d="m160.5,67.7v4.9h-7.05v-4.81c2.31-.15,4.58-.03,7.05-.09Z"/>
      <path class="cls-1" d="m229.1,126.25c-2.05.2-3.91.21-5.88-.02v-5.72c1.88-.21,3.76-.03,5.82-.09.14,1.96.03,3.78.05,5.84Z"/>
      <path class="cls-1" d="m125.97,138.64v4.67c-2.38.44-4.69.22-7.16.04,0-1.34-.02-2.58,0-3.82,0-.48.19-.89.79-.89,2.05,0,4.09,0,6.36,0Z"/>
      <path class="cls-1" d="m186.68,46.14h-7.28v-4.66c.65-.07,1.18-.16,1.72-.17,1.36-.02,2.71-.01,4.07,0,1.33.02,1.44.12,1.48,1.47.03,1.05,0,2.1,0,3.35Z"/>
      <path class="cls-1" d="m143.2,161h-7.06c0-1.37,0-2.71,0-4.04,0-.56.36-.82.87-.82,1.8,0,3.61-.02,5.41.06.27.01.73.45.75.72.08,1.33.04,2.67.04,4.09Z"/>
      <path class="cls-1" d="m142.54,55.21c-.35.11-.58.25-.81.25-1.25.03-2.5.03-3.76.03-.71,0-1.13-.27-1.11-1.06.03-1.25,0-2.5,0-3.76,0-.75.35-1.1,1.1-1.09,1.25,0,2.5-.01,3.75,0,.53,0,.83.28.83.84,0,1.59,0,3.19,0,4.8Z"/>
      <path class="cls-1" d="m220.49,93.93v5.6h-5.51c-.1-1.83-.05-3.65-.02-5.6,1.86-.33,3.61-.28,5.53,0Z"/>
      <path class="cls-1" d="m119.13,108.05v-4.75h6.48v4.8c-2.16.09-4.26.3-6.48-.05Z"/>
      <path class="cls-1" d="m119.77,126.13c-.44-1.31-.44-3.25-.01-5.6h5.29c.62,1.82.25,3.67.15,5.6h-5.42Z"/>
      <path class="cls-1" d="m118.89,72.39c0-1.37-.03-2.66.03-3.94.01-.22.45-.59.71-.59,1.99-.05,3.98-.03,6.09-.03v4.56h-6.83Z"/>
      <path class="cls-1" d="m136.82,125.77v-4.44c.5-.08.88-.18,1.26-.19,1.3-.02,2.61.02,3.91,0,.75-.01,1.12.29,1.11,1.06-.01.8.03,1.61,0,2.41-.05.99-.2,1.15-1.15,1.17-1.64.02-3.29,0-5.13,0Z"/>
      <path class="cls-1" d="m168.76,41.6v4.52c-2.05.26-4.05.19-6.2-.01v-4.47c1.57-.42,4.68-.44,6.2-.04Z"/>
      <path class="cls-1" d="m110.85,76.63c2.07-.01,4.1-.24,6.17.07v4.31h-6.17v-4.38Z"/>
      <path class="cls-1" d="m171.54,143.65c-.29-1.73-.06-3.34-.11-5.03h5.69c.19,1.45.1,2.89.1,4.31,0,.48-.34.71-.79.72-1.59.01-3.18,0-4.89,0Z"/>
      <path class="cls-1" d="m159.48,138.63c0,1.49,0,2.79,0,4.09,0,.51-.18.92-.75.93-1.38.02-2.77,0-4.28,0v-5.04c1.71-.12,3.32-.15,5.03.02Z"/>
      <path class="cls-1" d="m211.94,160.68h-6.05v-3.93h6.05v3.93Z"/>
      <path class="cls-1" d="m180.08,81.12v-4.07c1.86-.21,3.72-.07,5.77-.08.13,1.41.15,2.72-.04,4.14h-5.73Z"/>
      <path class="cls-1" d="m154.33,121.24h5.14c.36,1.42.07,2.87.16,4.52-1.7,0-3.18.03-4.66-.03-.22,0-.59-.45-.6-.7-.06-1.23-.03-2.46-.03-3.79Z"/>
      <path class="cls-1" d="m194.71,139.08v3.65c-1.03.34-4.17.39-5.94.09v-3.82c2.01-.07,3.92-.15,5.94.07Z"/>
      <path class="cls-1" d="m202.52,170.08h-4.5c-.45-1.61-.17-3.13-.15-4.79h4.66c.31,1.51.29,3.07,0,4.79Z"/>
      <path class="cls-1" d="m171.56,68.05h5.54c.41,1.25.19,2.48.15,3.76-1.68.47-3.34.22-4.97.24-.5,0-.7-.36-.71-.81-.02-.99,0-1.99,0-3.2Z"/>
      <path class="cls-1" d="m223.89,143.36v-4.76h4.56c.32,1.53.09,3.1.14,4.76h-4.71Z"/>
      <path class="cls-1" d="m220.25,59.55v3.73h-5.49v-3.77c1.82-.31,3.6-.28,5.49.04Z"/>
      <path class="cls-1" d="m150.92,45.64c-1.82.18-3.57.11-5.4.06v-3.9h5.4v3.84Z"/>
      <path class="cls-1" d="m172.27,121.13c1.39,0,2.48-.04,3.57.03.27.02.75.34.75.53.03,1.32.26,2.66-.13,4.08-1.17,0-2.26.01-3.34,0-.53,0-.83-.31-.84-.84-.01-1.18,0-2.36,0-3.8Z"/>
      <path class="cls-1" d="m162.88,77.18c1.68,0,3.02-.02,4.37,0,1.1.02,1.25.15,1.27,1.19.06,2.89.12,2.6-2.42,2.6-.7,0-1.4.01-2.1.02-.9,0-1.08-.13-1.11-1-.04-.89,0-1.77,0-2.81Z"/>
      <path class="cls-1" d="m116.09,94.73v4.35h-4.29v-4.35h4.29Z"/>
      <path class="cls-1" d="m228.62,86.11c0,1.11,0,2,0,2.9,0,.61-.3.92-.92.92-1.29,0-2.58,0-3.92,0-.48-1.23-.2-2.41-.23-3.76,1.65-.15,3.25-.17,5.07-.06Z"/>
      <path class="cls-1" d="m163.13,133.82v-3.56c1.71-.21,3.33-.16,5.05,0v3.56h-5.05Z"/>
      <path class="cls-1" d="m107.86,121.31c0,1.21,0,2.1,0,2.99,0,.61-.35.9-.95.9-1.05,0-2.09,0-3.14,0-.61,0-.91-.31-.91-.93,0-.7,0-1.4,0-2.09,0-.54.23-.87.78-.88,1.33-.02,2.66,0,4.22,0Z"/>
      <path class="cls-1" d="m115.98,134.27c-1.39.22-2.73.28-4.12.04v-4.44c.73,0,1.41-.03,2.08,0,.64.03,1.28.13,2.04.22v4.18Z"/>
      <path class="cls-1" d="m180.57,133.88v-3.41h5.11c0,.9.01,1.73,0,2.56-.01.52-.29.87-.83.88-1.38.01-2.77-.02-4.28-.03Z"/>
      <path class="cls-1" d="m198.14,41.81h4.21c.45,1.22.09,2.46.24,3.81h-4.44c-.14-1.15-.12-2.37,0-3.81Z"/>
      <path class="cls-1" d="m107.5,89.57h-4.69v-3.27h4.69v3.27Z"/>
      <path class="cls-1" d="m193.62,86.09v3.78c-1.06.43-2.11.23-3.13.18-.26-.01-.52-.47-.75-.75-.05-.06,0-.19-.02-.29-.31-2.94-.2-3.06,2.73-3.01.34,0,.69.05,1.17.08Z"/>
      <path class="cls-1" d="m111.98,63.3v-3.63c1.18-.56,2.39-.38,3.72-.24v3.87h-3.72Z"/>
      <path class="cls-1" d="m120.55,50.71h3.79v3.94c-1.05,0-1.98.01-2.92,0-.53-.01-.85-.31-.86-.85-.02-.99,0-1.98,0-3.09Z"/>
      <path class="cls-1" d="m155.31,86.12h3.76c.18,1.23.12,2.45.01,3.64-1.15.74-2.31.05-3.53.33-.49-1.3-.19-2.53-.24-3.96Z"/>
      <path class="cls-1" d="m210.69,50.58v4.06c-1.05,0-2.04.06-3.01-.03-.28-.03-.71-.45-.74-.73-.09-.98-.04-1.97-.04-2.97,1.3-.54,2.48-.14,3.79-.33Z"/>
      <path class="cls-1" d="m132.93,41.72c.05.97.11,1.66.11,2.36,0,.49-.06.98-.1,1.55h-3.8c0-1.1,0-2.09,0-3.07,0-.56.35-.82.85-.83.93-.03,1.86,0,2.93,0Z"/>
      <path class="cls-1" d="m112.07,148.24c1.24-.4,2.34-.44,3.58.08,0,.77-.02,1.56,0,2.35.03.77-.35,1.07-1.08,1.07-2.98-.02-2.59.22-2.61-2.51,0-.29.06-.59.1-.99Z"/>
      <path class="cls-1" d="m112.04,116.31v-3.42c1.17-.29,2.32-.2,3.59-.06v3.48h-3.59Z"/>
      <path class="cls-1" d="m150.18,130.17v3.67h-3.58c-.36-.99-.22-1.98-.14-2.95.02-.26.49-.66.78-.68.92-.09,1.86-.03,2.95-.03Z"/>
      <path class="cls-1" d="m190.04,33.04h3.34c.34,1.21.19,2.38.1,3.64h-3.44v-3.64Z"/>
      <path class="cls-1" d="m106.74,139.29c.05.35.14.73.16,1.12.12,2.44-.58,3-2.99,2.43-.45-.11-.72-.33-.72-.81,0-.05,0-.1,0-.15-.24-2.75.32-3.17,3.55-2.59Z"/>
      <path class="cls-1" d="m150.08,183.4v3.55h-3.41v-3.55h3.41Z"/>
      <path class="cls-1" d="m233.15,134.07v-3.5h3.39v3.37c-1.01.42-2.08.22-3.39.13Z"/>
      <path class="cls-1" d="m159.09,33.13v3.52h-3.39v-3.49c1.1-.33,2.2-.26,3.39-.04Z"/>
      <path class="cls-1" d="m138.15,174.51c.93,0,1.82-.02,2.7,0,.55.02.8.39.78.91-.03.89-.1,1.78-.15,2.78h-3.25c-.34-1.13-.19-2.3-.07-3.69Z"/>
      <path class="cls-1" d="m176.25,36.63h-3.46v-3.41c1.01-.47,2.01-.24,2.99-.21.57.01.67.52.64,1-.04.8-.1,1.59-.17,2.62Z"/>
      <path class="cls-1" d="m141.34,33.15v3.23c-1.09.8-2.25-.03-3.46.52v-3.77c1.12-.25,2.25-.24,3.46.02Z"/>
      <path class="cls-1" d="m124.16,157.02v3.32c-1.13.53-2.26.39-3.49.11v-3.34c1.14-.38,2.21-.27,3.49-.09Z"/>
      <path class="cls-1" d="m176.21,89.54c-1.21.15-2.27.22-3.39-.03v-3.23c1.1-.51,2.18-.2,3.39-.18v3.44Z"/>
      <path class="cls-1" d="m132.86,165.63v3.52c-1.16.37-2.22.24-3.32.11-.46-.98-.2-1.99-.18-2.95,0-.23.5-.62.8-.65.82-.09,1.66-.03,2.7-.03Z"/>
      <path class="cls-1" d="m227.86,68.59v3.34h-3.4c-.31-1.09-.15-2.15-.1-3.34h3.51Z"/>
      <path class="cls-1" d="m233.15,77.74c.23-.09.37-.18.5-.19.89-.01,1.78,0,2.81,0v3.36c-.97.43-2.08.09-3.32.12v-3.29Z"/>
      <path class="cls-1" d="m164.16,186.76v-3.21c1.11-.49,2.16-.44,3.37.06,0,.81,0,1.64,0,2.48,0,.55-.32.85-.83.84-.83-.01-1.65-.11-2.54-.17Z"/>
      <path class="cls-1" d="m236.7,112.65c-.09,1.31-.16,2.33-.23,3.46-.94,0-1.73.05-2.51-.03-.26-.03-.68-.36-.71-.59-.1-.73-.1-1.49-.01-2.23.03-.23.45-.56.72-.58.83-.08,1.66-.03,2.74-.03Z"/>
      <path class="cls-1" d="m241.5,121.67c1.2,0,2.09-.02,2.97,0,.46.01.75.27.72.76-.05.83-.11,1.66-.18,2.59h-3.21c-.09-1.03-.18-2.04-.3-3.36Z"/>
      <path class="cls-1" d="m233.21,95.18h3.19c.06,1.15.11,2.21.17,3.42h-3.36v-3.42Z"/>
      <path class="cls-1" d="m242.15,103.86c.93,0,1.58,0,2.22,0,.6,0,.94.27.95.89,0,.79,0,1.57,0,2.53-1.08.05-2.05.09-3.16.14-.33-1.21-.22-2.33,0-3.56Z"/>
      <path class="cls-1" d="m190.11,178.21v-3.41h3.01c.22,1.16.34,2.25-.08,3.41h-2.93Z"/>
      <path class="cls-1" d="m98.06,95.14v3.19h-3.17v-2.97c.94-.49,1.97-.19,3.17-.22Z"/>
      <path class="cls-1" d="m241.99,86.57h3.08v3.05c-.13.11-.17.17-.21.17-3.16.26-3.18.44-2.87-3.23Z"/>
      <path class="cls-1" d="m103.68,107.13c-.07-.23-.14-.37-.14-.51-.02-2.65-.61-3.01,3.06-2.57v3.08h-2.92Z"/>
      <path class="cls-1" d="m172.94,174.79h2.92v3.11h-2.92v-3.11Z"/>
      <path class="cls-1" d="m115.24,166.06v2.93c-.97.4-1.91.38-3.09.06.04-.97.08-1.92.13-2.99h2.96Z"/>
      <path class="cls-1" d="m158.76,177.93h-2.96v-3.08h2.96v3.08Z"/>
      <path class="cls-1" d="m94.92,116.12c0-.84,0-1.58,0-2.32,0-.49.29-.76.74-.76.78,0,1.55.04,2.41.07v3.04c-.96.26-1.96.31-3.15-.03Z"/>
      <path class="cls-1" d="m233.3,148.55c3.07-.48,3.19-.37,2.92,2.62-.06.07-.11.19-.19.21-.86.25-1.91.7-2.55.05-.71-.72-.44-1.84-.18-2.88Z"/>
      <path class="cls-1" d="m106.71,68.56v3.37c-.8,0-1.54.03-2.26-.02-.21-.01-.56-.23-.58-.38-.08-.83-.14-1.67-.07-2.5.01-.18.53-.42.83-.45.64-.07,1.28-.02,2.08-.02Z"/>
      <path class="cls-1" d="m210.33,177.87h-2.95v-3.04h2.85c.45.93.26,1.94.1,3.04Z"/>
      <path class="cls-1" d="m123.83,174.81v3.08h-2.86c-.06-1.02-.11-1.98-.18-3.08h3.04Z"/>
      <path class="cls-1" d="m216.01,166.12h2.84v3.01h-2.84v-3.01Z"/>
      <path class="cls-1" d="m227.71,160.13h-2.98c-.04-.52-.08-.94-.09-1.37-.02-.44,0-.89,0-1.4,1.02-.46,2-.32,3.08-.12v2.89Z"/>
      <path class="cls-1" d="m181.54,186.76v-2.92h2.86v2.92h-2.86Z"/>
      <path class="cls-1" d="m233.65,59.82c.89.07,1.66.13,2.55.2v2.64c-.7.74-1.64.02-2.48.43-.4-1.16-.25-2.15-.07-3.27Z"/>
      <path class="cls-1" d="m103.81,160.07v-2.55c.88-.38,1.92-.64,2.5.07.38.48.37,1.68.02,2.23-.5.78-1.52.3-2.52.25Z"/>
      <path class="cls-1" d="m94.99,133.51c.08-1.04.15-1.82.22-2.67h2.66v2.67h-2.88Z"/>
      <path class="cls-1" d="m224.75,106.75v-2.16c1.05-.39,2.03-.21,3.13-.17v2.33h-3.13Z"/>
      <path class="cls-1" d="m227.57,51.37c.04.23.08.33.08.43.09,2.46.05,2.5-2.62,2.17v-2.6h2.54Z"/>
      <path class="cls-1" d="m244.56,142.36h-2.31v-2.49h2.31v2.49Z"/>
      <path class="cls-1" d="m218.84,45.01h-2.43v-2.57h2.43v2.57Z"/>
      <path class="cls-1" d="m97.6,80.52h-2.21c-.04-.79-.07-1.55-.11-2.48h2.32v2.48Z"/>
      <path class="cls-1" d="m132.08,186.37h-2.09v-2.11c1.92-.55,2.66-.13,2.09,2.11Z"/>
      <path class="cls-1" d="m199.21,184.23c2.21-.42,2.41-.21,2.08,2.07-.3.04-.63.12-.96.13-.34.01-.68-.03-1.12-.06v-2.14Z"/>
      <path class="cls-1" d="m251.09,97.37c.05-.52.08-.96.13-1.5.6-.27,1.31-.71,1.82-.06.28.36.18,1.14.03,1.67-.12.43-.89.37-1.97-.11Z"/>
      <path class="cls-1" d="m166.56,27.02c-.79-.06-1.27-.1-1.84-.14v-1.82h1.96c-.04.7-.08,1.25-.12,1.96Z"/>
      <path class="cls-1" d="m242.63,69.16c.76.1,1.23.16,1.67.21.33,1.85.16,2.02-1.67,1.74v-1.95Z"/>
      <path class="cls-1" d="m175.32,195.05c-.62-.08-1.32.03-1.68-.27-.24-.2-.12-1.04.09-1.47.1-.2.85-.24,1.22-.12.8.27.51.95.37,1.86Z"/>
      <path class="cls-1" d="m182.09,26.85v-1.81h1.8v1.81h-1.8Z"/>
      <path class="cls-1" d="m251.25,113.61c1.84-.33,1.98-.2,1.75,1.7-.53.03-1.09.06-1.75.09v-1.79Z"/>
      <path class="cls-1" d="m209.8,34.12c.02.46.04.94.07,1.56h-1.62c-.51-1.64-.24-1.93,1.54-1.56Z"/>
      <path class="cls-1" d="m88.72,88.14c.03.64-.31.87-.91.86-.57,0-.78-.31-.8-.83-.02-.53.18-.85.76-.85.56,0,.98.15.95.82Z"/>
      <path class="cls-1" d="m89.15,105.59c-.55.42-.83.79-1.17.86-.49.1-.85-.2-.85-.78,0-.53.27-.93.8-.85.34.05.65.39,1.22.77Z"/>
      <path class="cls-1" d="m252.2,131.25c.47-.03.74.15.78.66.04.64-.23,1.05-.76,1.02-.48-.03-.7-.3-.7-.78,0-.49.06-.91.68-.91Z"/>
      <path class="cls-1" d="m139.74,193.2c.51,0,.8.26.79.83,0,.56-.27.83-.82.84-.52.01-.69-.29-.73-.75-.05-.55.16-.87.76-.92Z"/>
      <path class="cls-1" d="m156.94,194.9c-.4-.03-.63-.42-.62-.97,0-.61.51-.68.94-.68.47,0,.65.33.62.8-.03.48-.09.89-.94.85Z"/>
      <path class="cls-1" d="m149.06,26.05c.05.52-.33.7-.81.74-.47.04-.74-.21-.73-.7,0-.47.07-.9.69-.91.54,0,.82.25.85.87Z"/>
      <path class="cls-1" d="m87.19,122.86c.67-.17,1.28-.43,1.56.38.18.52-.19,1.04-.69,1.08-.65.05-.83-.22-.87-1.46Z"/>
      <path class="cls-1" d="m200.44,26.83c-.76-.04-.89-.37-.87-.82.02-.42.07-.81.61-.83.56-.03.89.32.82.81-.05.34-.41.64-.56.85Z"/>
      <path class="cls-1" d="m252.33,78.24c.19.26.53.53.62.87.12.47-.12.87-.69.91-.5.04-.71-.27-.74-.72-.04-.47.05-.88.82-1.06Z"/>
      <path class="cls-1" d="m190.89,193.32c.8-.16,1.38-.2,1.5.63.08.54-.38,1.03-.88.93-.88-.18-.52-.9-.62-1.56Z"/>
      <path class="cls-1" d="m97.26,150.54c-.78.28-1.27.26-1.34-.53-.04-.43.1-.85.62-.83.91.04.72.73.73,1.35Z"/>
      <path class="cls-1" d="m235.62,167.3q-.16,1.04-1.2.88-.06-1.34,1.2-.88Z"/>
      <path class="cls-1" d="m113.16,44.27c-.12-.97.26-1.29,1.09-1.11q.28,1.3-1.09,1.11Z"/>
      <path class="cls-1" d="m122.51,35.9c-.36-.4-.75-.65-.72-.84.04-.32.3-.77.57-.85.48-.16.73.27.69.7-.03.28-.27.53-.53.99Z"/>
      <path class="cls-1" d="m226.8,176.3c.06.53.04,1.02-.59.98-.21-.02-.59-.5-.55-.69.18-.75.69-.45,1.14-.29Z"/>
      <path class="cls-1" d="m105.97,52.75c-.42.22-.68.45-.94.45-.15,0-.47-.46-.41-.58.1-.23.4-.47.65-.51.16-.02.37.32.7.64Z"/>
      <path class="cls-1" d="m97.3,61.69c-.23.08-.48.25-.69.21-.23-.05-.43-.29-.64-.45.16-.15.31-.4.5-.44.17-.03.39.17.58.27.08.14.17.27.25.41Z"/>
      <path class="cls-1" d="m87.95,141.72c-.24-.26-.47-.43-.55-.65-.03-.08.34-.44.45-.41.23.06.41.31.62.48-.15.16-.29.32-.52.58Z"/>
      <path class="cls-1" d="m243.54,158.37c.19.24.31.41.44.58-.14.11-.32.32-.42.29-.18-.06-.34-.25-.44-.42-.03-.05.22-.24.42-.45Z"/>
      <path class="cls-1" d="m217.71,186.14c-.25-.24-.5-.39-.48-.47.06-.24.23-.46.35-.69.14.1.4.21.39.3,0,.24-.14.47-.27.85Z"/>
    </g>
  </g>
  <circle class="cls-6" cx="543.21" cy="271.05" r="33.89"/>
  <polyline class="cls-2" points="523.62 268.05 537.74 281.99 564.21 258.7"/>
</svg>