<?xml version="1.0" encoding="UTF-8"?>
<svg id="Layer_1" data-name="Layer 1" xmlns="http://www.w3.org/2000/svg" xmlns:xlink="http://www.w3.org/1999/xlink" viewBox="0 0 654.35 271.79">
  <defs>
    <style>
      .cls-1 {
        fill: #ee3229;
      }

      .cls-1, .cls-2, .cls-3 {
        fill-rule: evenodd;
      }

      .cls-4, .cls-3 {
        fill: #fff;
      }

      .cls-2 {
        fill: #cf2031;
      }

      .cls-5 {
        mask: url(#mask-1);
      }

      .cls-6 {
        mask: url(#mask);
      }
    </style>
    <mask id="mask" x="611.88" y="146.17" width="36.36" height="41.34" maskUnits="userSpaceOnUse">
      <g id="b">
        <path id="a" class="cls-3" d="m611.88,146.17h36.36v41.33h-36.36v-41.33Z"/>
      </g>
    </mask>
    <mask id="mask-1" x="583.34" y="9.49" width="21.15" height="39.69" maskUnits="userSpaceOnUse">
      <g id="d">
        <path id="c" class="cls-3" d="m583.34,9.49h21.15v39.69h-21.15V9.49Z"/>
      </g>
    </mask>
  </defs>
  <g>
    <path class="cls-2" d="m32.19,67.45h43.3l-22.72,76.39c-1.59,5.36,1.79,9.78,7.36,9.78h0c5.58,0,11.31-4.42,12.91-9.78l22.72-76.39h38.39l-26.23,97.65c-2.31,8.62-11.52,15.67-20.45,15.67H21.04c-10.61,0-17.05-8.38-14.29-18.62l25.44-94.7h0Z"/>
    <polygon class="cls-2" points="161.86 180.76 120.06 180.76 140.5 109.18 182.3 109.18 182.3 109.18 226.76 109.18 218.68 135.63 174.21 135.63 161.86 180.76 161.86 180.76"/>
    <path class="cls-2" d="m268.8,66.3h56.54c8.27,0,22.31,6.63,19.44,17.17l-1.13,4.15h-50.46c-2.59,0-5.29,2.08-5.99,4.62l-15.68,56.78c-.7,2.54.85,4.62,3.44,4.62h50.68l-3.67,13.48c-2.13,7.8-10.52,14.23-18.78,14.23h-59.69c-10.52,0-16.98-8.14-14.36-18.1l22.01-83.57c1.94-7.35,9.88-13.37,17.65-13.37h0Z"/>
    <path class="cls-2" d="m231.22,93.74h-44.37l-.02.08h-41.8l8.04-27.78h86.15l-8,27.71h0Z"/>
  </g>
  <g>
    <path class="cls-1" d="m487.83,147.26l-6.97,28.29c-.58,2.26-1.89,4.21-3.93,5.83s-4.2,2.44-6.46,2.44l9.02-36.56h-11.15l-1.15,5.54-8.93,36.56h10.84c5.29,0,10.31-2,15.08-6,4.77-4,7.8-8.7,9.11-14.1l4.03-16.46,1.36-5.54h-10.85Z"/>
    <path class="cls-1" d="m519.47,130.39c-.95-1.1-2.21-1.65-3.78-1.65s-3.02.55-4.33,1.65c-1.31,1.1-2.09,2.41-2.35,3.95-.27,1.59.07,2.93,1.01,4.03.94,1.1,2.19,1.65,3.77,1.65s3.03-.56,4.34-1.69c1.31-1.13,2.1-2.45,2.35-3.99.26-1.53-.08-2.85-1.02-3.95m-10.61,49.43c.02-.11.06-.25.11-.41.06-.17.1-.27.1-.33l8.09-31.5h-18.74l-1.43,5.51h7.5l-6.74,25.99c-.12.32-.2.66-.25,1-.48,2.85.26,5.11,2.23,6.79,1.97,1.67,4.89,2.51,8.78,2.51h1.68l1.44-5.51c-2.25-.32-3.19-1.67-2.79-4.03m30.59-2.23c-.43,1.71-1.39,3.18-2.86,4.4-1.48,1.22-3.05,1.82-4.71,1.82-3.11,0-4.41-1.54-3.93-4.64.01-.05.05-.19.11-.41.06-.22.1-.39.12-.5l5.16-21.3c.7-2.76,2.18-4.14,4.43-4.14h7.72s-6.04,24.78-6.04,24.78Zm10.03,3.15c.02-.11.06-.23.1-.33.04-.1.07-.21.09-.33l7.96-32.82h-18.57c-3.87,0-7.46,1.12-10.79,3.36-3.33,2.24-5.4,5.04-6.2,8.4l-4.49,18.57c-.12.35-.2.71-.24,1.08-.5,3.09.38,5.65,2.63,7.66,2.25,2.02,5.2,3.03,8.85,3.03h1.68c3.16,0,6.1-1.13,8.82-3.4,1.36,2.27,3.91,3.4,7.66,3.4h3.78l1.36-5.55c-2.07-.11-2.96-1.13-2.65-3.07Zm52.72-22.63l-.14.91-4.5,18.57c-.48,1.99-1.27,3.52-2.36,4.6-1.09,1.08-2.22,1.62-3.41,1.62-1.08,0-1.9-.49-2.48-1.5-.57-.99-.72-2.26-.48-3.81.02-.11.06-.26.12-.45.04-.15.08-.3.11-.45l4.5-18.57c.45-1.82,1.2-3.3,2.25-4.43,1.04-1.13,2.21-1.7,3.51-1.7,1.08,0,1.89.46,2.45,1.37.55.92.71,2.2.43,3.85m8.25-7.83c-2.24-2.02-5.18-3.03-8.85-3.03h-1.7c-4,0-7.64,1.13-10.94,3.4-3.3,2.27-5.35,5.06-6.15,8.37l-4.59,18.57c-.11.35-.19.71-.24,1.08-.51,3.15.37,5.71,2.65,7.71,2.27,1.99,5.27,2.98,8.98,2.98h1.61c3.94,0,7.57-1.15,10.9-3.44,3.33-2.3,5.39-5.07,6.19-8.33l4.59-18.57.17-1.07c.49-3.1-.38-5.66-2.62-7.67"/>
    <g class="cls-6">
      <path class="cls-1" d="m644.5,146.17c-4.5,0-8.4,1.17-11.67,3.5l.84-3.5h-11.11l-10.67,41.34h11.17l5.8-22.61c.74-2.77,2.18-5.36,4.34-7.77,2.16-2.41,4.59-4.08,7.3-5.01l-1.33,5.37h6.09l2.98-11.32h-3.75Z"/>
    </g>
    <path class="cls-1" d="m437.42,159.78l.02-.12,5.02-19.73c.37-1.65,1.15-3.02,2.33-4.08,1.18-1.06,2.52-1.6,3.98-1.6,1.38,0,2.38.46,3.05,1.4.65.92.88,2.11.65,3.53l-.12.74-5.02,19.73-.04.12s-9.87,0-9.87,0Zm22.85-27.93c-2.5-2.08-5.87-3.12-10.11-3.12-4.63,0-8.7,1.17-12.24,3.5-3.54,2.32-5.78,5.41-6.73,9.26l-4.55,18.17c-3.84,0-7.4.02-10.17.02-3.91,0-7.05,3.21-7.05,7.15h15.42l-5.62,22.53h10.85l5.64-22.53h9.88l-3.51,13.98c-.12.35-.2.7-.25,1.06-.39,2.36.07,4.21,1.39,5.52,1.3,1.31,3.29,1.97,5.95,1.97h4.33l1.39-5.52c-1.57-.11-2.22-.96-1.96-2.54l9.92-39.82c.02-.12.05-.34.14-.66.09-.34.12-.55.14-.67.56-3.44-.41-6.21-2.89-8.3h0Zm117.95,14.81l2.44-9.52h-10.78l-2.36,9.52h-5.29l-1.37,5.41h5.3l-6.43,25.58c-.02.11-.06.3-.14.57-.05.19-.09.38-.13.57-.45,2.74.08,4.9,1.59,6.5,1.52,1.58,3.79,2.38,6.85,2.38h3.78l1.38-5.49c-2.22-.21-3.14-1.48-2.76-3.79.02-.11.05-.24.11-.41.05-.16.08-.26.09-.33l6.43-25.58h4.59l1.37-5.41h-4.67Zm-10.12-73.51l-23.94-4.94,23.94-10.22,4.69,5.79-4.69,9.36Zm-111.51,42.1v.03l.05-.03h-.05Z"/>
    <path class="cls-1" d="m557.17,76.33c-.86,1.27-2.86,3.62-5.81,3.14-1.44-.24-59.95-12.06-60.1-12.07-.41-.11-.36-.99.39-.9l65.13,8.95c.41.07.63.53.39.89m-2.2-21.22l-8.78,4.48s-2.04-1.23.26-2.27c.59-.26,1.94-1.03,3.03-1.6.39-.2.54-.68.34-1.07-.09-.17-.24-.3-.41-.37l-6.53-2.61c1.1-.88,2.82-1.4,4.46-.91.95.29,4.92,1.95,7.52,3.04.8.33.61,1.06.12,1.3m-20.7,6c-.94.67-7.11-.48-7.11-.48,0,0,6.83-6.04,13.32-6.81,1.93-.23,5.84,1.28,5.84,1.28,0,0-8.71,3.62-12.05,6.02m66.62-.32c-2.89-6.29-5.01-11.67-5.76-12.95-2.21-3.72-5.5-3.52-8.32-3.03-7.52,1.29-10.46,2.61-23.72,6.12-1.95.53-5.63,1.61-7.66.91-5.37-1.83-7-3.3-9.58-3.01-3.99.45-12.2,4.3-21.1,10.78-2.79,2-2.47,4.38-2.96,5.96-.09.3.07.61.37.7.04.01.07.02.11.02,1.29.13,15.43,1.36,16.07,1.45-.2-.1-.32-.3-.32-.52,0-.19.09-.38.29-.48,4.04-2.17,18.68-9.89,27.54-13.36,12.11-4.78,15.03-5.29,18.71-5.64.86-.08,2.06-.02,2.94.03.71.06,1.34.49,1.56,1.14,1.67,4.88,6.57,15.92,9.15,19.57,0,0-.46.87-1.33.91-.68.01-2.06-1.26-2.92-2.02-.19-.16-.47-.18-.68-.04-14.52,8.91-24.98,12.8-26.49,13.33-.12.05-.26.04-.38-.01l-7.41-2.75s.28-.23.97-1.61c.14-.32.22-.69.21-.92-.06-1.18-1.19-1.44-1.71-1.51-1.97-.24-54.96-8.02-68.25-9.32-5.64-.57-11,2.31-13.32,5.32v.08s7.54,7.81,7.54,7.81c.17.18.42.22.64.12l5.92-2.71s.81,2.5.06,2.92c-4.92,2.69-9.68,5.09-14.28,7.49-1.85.98-1.81,2.82-2.41,5.41-.25,1.08-.38,2.08-.38,2.08,0,0,10.32-5.15,16.64-8.16.22-.1.48-.05.65.12.9.96,1.2,1.19,1.81,1.8.22.22.22.57,0,.79-.04.04-.09.08-.14.1-1.49.79-3.03,1.6-4.21,2.3-.94.56.02,2.41.02,2.41l17.18-8.1s1.07,1.05-.83,2.22c-2.93,1.83-30.02,15.58-32.35,15.64-6.14.15-17.74-11.36-21.93-13.11-3.53-1.48-7.34.93-12.5,3.95-1.4.83-.55,2.84-.55,2.84l7.48-3.77s.93,1.06-.11,1.71c-3.62,2.29-8.86,4.57-9.67,5.15-1.18.84-.73,4.79-.73,4.79l7.08-3.27c.21-.1.48-.07.58.03l15.17,14.38c.96-.23,1.9-.55,2.81-.94l-12.65-13.4c-.21-.23-.2-.58.02-.8.04-.04.08-.07.13-.09,1.29-.66,2.84-1.13,5.03.53,1.84,1.39,8.27,6.57,14.49,6.02,2.07-.18,2.11.45,2.11.45,0,0-2.64,1.27-5.78,2.98-1.55.85-.29,3.11-.29,3.11,16.03-6.55,35.77-14.7,38.54-15.88.19-.08.41-.05.57.08l4.64,3.66c.66,1.02,33.63-11.6,43.8-16.72.57-.28,5.74-.05,8.24-.07,1.15,0,1.1.5,1.1.5,0,0-82.53,32.76-102.78,32l-.03.02-4.31,1.84c2.53,1.66,1.93,4.54,6.23,2.32.26.59.56,1.21.87,1.88q.84,1.81,6.31-.03c15.49-5.22,85.13-25.94,100.72-32.37,8.81-3.62,20.98-8.61,28.57-13.3,7.49-4.61,9.02-6.98,4.95-15.85m-2.38-11.18c-.08.02-.17.03-.25.06-.08.03-.16.08-.22.14l.84-.22c-.14,0-.25.02-.37.02m22.83,45.27l-.11.18-.12-.18c-.08-.11-7.73-11.23-10.5-15.54-.84-1.3.14-1.95.14-1.95l.11-.07.08.1c.39.48,9.42,12.09,10.59,14.23.89,1.6-.14,3.16-.19,3.23m1.85-2.29c-.49-1.94-4.08-14.79-6.16-19.5l-9.47-16.76c-.9,1.2-1.97,2.49-2.98,3.43-.19.15-.39.29-.62.4-.28.12-.57.19-.87.2l5.1,16.53c.76,2.66,2.53,4.91,4.06,7.2.77,1.13,6.19,9.12,8.28,12.18.43.64,1.41.66,1.83.01.76-1.15,1.13-2.53.83-3.68"/>
    <g class="cls-5">
      <path class="cls-1" d="m596.06,29.59l-.11.07-.08-.1c-.39-.51-9.57-12.38-10.78-14.58-.89-1.65.16-3.24.2-3.3l.11-.17.13.17c.08.12,7.88,11.52,10.69,15.91.85,1.33-.15,1.99-.16,2h0Zm2.84,1.18c-1.06-3.55-2.86-5.85-4.43-8.21-2.84-4.22-5.69-8.44-8.55-12.66-.3-.44-.9-.55-1.33-.25-.1.07-.19.16-.26.26-.83,1.23-1.19,2.77-.87,4.01.51,1.97,4.05,15.06,6.16,19.88l8.79,15.36c.22-.24.49-.44.8-.57.21-.09.43-.14.66-.16,1.16-.08,2.98-.07,4.62-.03l-5.59-17.64h0Z"/>
    </g>
    <path class="cls-1" d="m600.89,54.34l-1.39-2.95s-.25-.44.32-.67c.05-.02.09-.04.15-.05,0,0,5.76-.19,7.56.14.96.18.99.49.99.49,0,0-7.63,3.05-7.63,3.05Zm7.9-4.31c-2.4-.5-6.96-.53-9.68-.37-.11,0-.19,0-.3.01-.06.01-.13.02-.19.04-.06.02-.12.06-.17.11-.31.21-.5.62-.37.93,1.24,2.92,2.63,5.77,4.16,8.56.21.39.81.45,1.24.28.09-.04.17-.09.25-.15,2.32-2,4.51-4.82,5.89-7.63.42-.88.16-1.58-.84-1.79h0Zm-29.21-.45s-1.03,4.27-2.65,9.19l-3-3.8-2.44,1.11,4.43,5.62c-1.38,3.79-3.05,7.56-4.82,9.78l4.44-2.02c1.01-.94,1.83-2.84,2.46-5.12l2.44,3.09,2.45-1.12-4.13-5.24c.89-4.73,1.15-9.88.83-11.5"/>
  </g>
  <g>
    <path class="cls-4" d="m51.81,242.79c0,17.97-11.73,19.5-17.83,19.5h-7.33c-6.1,0-17.83-1.53-17.83-19.5s11.73-19.5,17.83-19.5h7.33c6.1,0,17.83,1.58,17.83,19.5Zm-9.41,0c0-4.92-1.18-9.67-5.96-9.67h-12.25c-4.78,0-5.96,4.75-5.96,9.67s1.18,9.72,5.96,9.72h12.25c4.78,0,5.96-4.75,5.96-9.72Z"/>
    <path class="cls-4" d="m92.34,223.29v9.67h-27.76v5.41h27.76v10.22h-27.76v13.71h-8.98v-39.01h36.74Z"/>
    <path class="cls-4" d="m133.82,223.29v9.67h-27.76v5.41h27.76v10.22h-27.76v13.71h-8.98v-39.01h36.74Z"/>
    <path class="cls-4" d="m138.55,223.29h8.94v39.01h-8.94v-39.01Z"/>
    <path class="cls-4" d="m160.73,242.79c0,4.97,1.13,9.72,5.91,9.72h12.29c3.55,0,5.01-2.08,5.67-6.17h9.5c-1.47,14.59-12.01,15.95-17.64,15.95h-7.38c-6.05,0-17.83-1.53-17.83-19.5s11.77-19.5,17.83-19.5h7.38c5.63,0,16.17,1.37,17.64,15.95h-9.5c-.43-3.77-2.13-6.12-5.67-6.12h-12.29c-4.78,0-5.91,4.75-5.91,9.67Z"/>
    <path class="cls-4" d="m197.9,223.29h8.94v39.01h-8.94v-39.01Z"/>
    <path class="cls-4" d="m236.63,223.29l16.98,39.01h-10.02l-3.45-8.47h-17.92l-3.45,8.47h-10.02l17.02-39.01h10.88Zm-.28,21.31l-5.15-12.73-5.2,12.73h10.36Z"/>
    <path class="cls-4" d="m292.25,252.63v9.67h-36.74v-39.01h8.98v29.34h27.76Z"/>
    <path class="cls-4" d="m353.82,237.88c0,13.49-10.02,14.59-16.12,14.59h-15.18v9.83h-8.98v-39.01h24.16c6.1,0,16.12,1.09,16.12,14.59Zm-9.41,0c0-3.06-1.18-4.75-5.96-4.75h-15.94v9.56h15.94c4.78,0,5.96-1.75,5.96-4.81Z"/>
    <path class="cls-4" d="m376.99,223.29l16.98,39.01h-10.02l-3.45-8.47h-17.92l-3.45,8.47h-10.02l17.02-39.01h10.88Zm-.28,21.31l-5.15-12.73-5.2,12.73h10.36Z"/>
    <path class="cls-4" d="m427.12,251.48l10.26,10.82h-12.25l-8.89-9.83h-11.87v9.83h-8.98v-39.01h24.16c6.1,0,16.12,1.09,16.12,14.59,0,8.58-4.07,12.13-8.56,13.6Zm-22.74-8.8h15.94c4.78,0,5.96-1.75,5.96-4.81s-1.18-4.75-5.96-4.75h-15.94v9.56Z"/>
    <path class="cls-4" d="m438.33,223.29h34v9.83h-12.67v29.17h-8.94v-29.17h-12.39v-9.83Z"/>
    <path class="cls-4" d="m510.17,223.29h8.94v39.01h-13.24l-20.81-27.81v27.81h-8.94v-39.01h13.24l20.81,27.81v-27.81Z"/>
    <path class="cls-4" d="m560.58,223.29v9.67h-27.8v5.41h27.8v9.12h-27.8v5.14h27.8v9.67h-36.74v-39.01h36.74Z"/>
    <path class="cls-4" d="m597.04,251.48l10.26,10.82h-12.25l-8.89-9.83h-11.87v9.83h-8.98v-39.01h24.16c6.1,0,16.12,1.09,16.12,14.59,0,8.58-4.07,12.13-8.56,13.6Zm-22.75-8.8h15.94c4.77,0,5.96-1.75,5.96-4.81s-1.18-4.75-5.96-4.75h-15.94v9.56Z"/>
    <path class="cls-4" d="m646.74,250.33c0,4.43-1.47,11.96-15.93,11.96h-6.05c-14.47,0-15.94-9.18-15.94-13.6h8.94c0,1.15.61,3.82,4.59,3.82h12.29c2.51,0,3.17-1.04,3.17-2.19,0-6.99-29.08,3.33-29.08-15.02,0-4.48,1.47-12.02,15.98-12.02h6c14.52,0,15.98,9.18,15.98,13.66h-8.99c0-1.2-.57-3.82-4.59-3.82h-12.29c-2.6,0-3.12.98-3.12,2.19,0,6.5,29.03-3.28,29.03,15.02Z"/>
  </g>
  <rect class="cls-4" x="377.49" y="44.53" width="4.11" height="163.9"/>
</svg>